<svg width="128" height="38" viewBox="0 0 128 38" fill="none" xmlns="http://www.w3.org/2000/svg">
<g clip-path="url(#clip0_1229_10615)">
<path d="M121.641 0.458984H5.41963C2.85199 0.458984 0.770508 2.51135 0.770508 5.04308V31.629C0.770508 34.1607 2.85199 36.2131 5.41963 36.2131H121.641C124.209 36.2131 126.29 34.1607 126.29 31.629V5.04308C126.29 2.51135 124.209 0.458984 121.641 0.458984Z" fill="black" stroke="white" stroke-width="1.333"/>
<path d="M66.0209 19.6876C63.968 19.6965 62.3111 21.3426 62.3167 23.3648C62.3236 25.387 63.991 27.0227 66.0439 27.0193C68.0969 27.0158 69.76 25.376 69.76 23.3531C69.774 22.374 69.3841 21.4306 68.6791 20.7396C67.9748 20.0479 67.0153 19.6684 66.0209 19.6876ZM66.0209 25.5788C65.0955 25.6427 64.2246 25.1429 63.8243 24.3178C63.4247 23.4934 63.5775 22.5122 64.2092 21.8425C64.841 21.1742 65.8236 20.9534 66.6876 21.2869C67.5509 21.6197 68.1199 22.4393 68.122 23.3531C68.1506 23.9252 67.9435 24.4835 67.5481 24.9029C67.152 25.3223 66.6018 25.5657 66.0209 25.5788ZM57.8691 19.6876C55.8147 19.6924 54.1523 21.3357 54.1558 23.3593C54.1593 25.3828 55.8259 27.0206 57.8802 27.0193C59.9346 27.0179 61.5991 25.3766 61.5991 23.3531C61.6131 22.374 61.2233 21.4306 60.5183 20.7396C59.8139 20.0479 58.8544 19.6684 57.86 19.6876H57.8684H57.8691ZM57.8691 25.5788C56.943 25.6462 56.07 25.1491 55.6669 24.3246C55.2638 23.5009 55.4138 22.5177 56.0449 21.8473C56.6759 21.1762 57.6592 20.9534 58.5239 21.2862C59.3886 21.619 59.959 22.4386 59.9611 23.3531C59.9897 23.9252 59.7826 24.4835 59.3872 24.9029C58.9911 25.3223 58.4409 25.5657 57.86 25.5788H57.8684H57.8691ZM48.1573 20.8173V22.3699H51.9397C51.8804 23.1014 51.5722 23.7911 51.0645 24.3281C50.2988 25.0961 49.2403 25.5093 48.1483 25.4667C45.8275 25.4667 43.9454 23.613 43.9454 21.3261C43.9454 19.0399 45.8275 17.1862 48.1483 17.1862C49.2152 17.169 50.2444 17.5692 51.0115 18.2987L52.1238 17.2034C51.0778 16.159 49.6461 15.5773 48.1573 15.5903C46.0374 15.5085 44.0424 16.5763 42.9573 18.373C41.873 20.1689 41.873 22.4056 42.9573 24.2023C44.0424 25.9982 46.0374 27.066 48.1573 26.9849C49.6733 27.0523 51.1454 26.4706 52.1942 25.389C53.1112 24.3962 53.6007 23.0911 53.5596 21.749C53.5624 21.4217 53.5331 21.0958 53.4724 20.774L48.1573 20.8173ZM87.8321 22.0247C87.3649 20.6702 86.0964 19.7399 84.6453 19.6869C83.676 19.6855 82.7506 20.0788 82.0875 20.7733C81.4236 21.4678 81.0819 22.4015 81.1419 23.3531C81.121 24.3274 81.5024 25.268 82.199 25.9597C82.8964 26.6514 83.8482 27.0337 84.8371 27.0193C86.0818 27.0261 87.2456 26.4169 87.9374 25.398L86.6676 24.535C86.2819 25.1676 85.5867 25.5547 84.8371 25.5527C84.0609 25.5822 83.3462 25.1408 83.0338 24.4402L88.0162 22.4132L87.8321 22.0247ZM82.7534 23.25C82.7179 22.7109 82.9033 22.1801 83.2694 21.7785C83.6348 21.3756 84.1495 21.135 84.6976 21.1109C85.275 21.0731 85.8189 21.3791 86.0811 21.8872L82.7534 23.25ZM78.7082 26.8034H80.3455V16.0214H78.7082V26.8034ZM76.0283 20.5065H75.967C75.4684 19.9565 74.7543 19.6429 74.0061 19.6443C72.0187 19.7392 70.4566 21.3543 70.4566 23.3146C70.4566 25.2742 72.0187 26.89 74.0061 26.9849C74.7571 26.9973 75.4754 26.6817 75.967 26.122H76.02V26.6487C76.02 28.0548 75.2578 28.8049 74.0326 28.8049C73.1972 28.7857 72.4566 28.2707 72.1581 27.5026L70.7307 28.0891C71.2809 29.4059 72.5863 30.2619 74.0319 30.2543C75.9495 30.2543 77.5346 29.1411 77.5346 26.4328V19.9028H76.0283V20.5065ZM74.1546 25.5788C72.9838 25.477 72.0856 24.511 72.0856 23.3531C72.0856 22.1952 72.9838 21.2298 74.1546 21.1281C74.7201 21.1563 75.2508 21.4086 75.6246 21.828C75.9991 22.2475 76.1859 22.7975 76.1427 23.3531C76.1908 23.9121 76.0046 24.467 75.6274 24.8864C75.2508 25.3072 74.7153 25.5575 74.1462 25.5788H74.1546ZM95.5028 16.0214H91.5886V26.8034H93.226V22.715H95.5111C96.7831 22.8044 97.9999 22.1876 98.6631 21.115C99.3276 20.0424 99.3276 18.6947 98.6631 17.6221C97.9999 16.5488 96.7831 15.9314 95.5111 16.0214H95.5028ZM95.5028 21.1968H93.2176V17.5224H95.5383C96.5753 17.5224 97.4162 18.351 97.4162 19.372C97.4162 20.3944 96.5753 21.223 95.5383 21.223L95.5035 21.1968H95.5028ZM105.599 19.6443C104.381 19.5728 103.235 20.2198 102.683 21.2917L104.136 21.8872C104.429 21.355 105.013 21.0442 105.625 21.0937C106.045 21.0456 106.467 21.1652 106.796 21.4258C107.125 21.6871 107.334 22.068 107.376 22.4819V22.594C106.85 22.3197 106.264 22.178 105.668 22.1801C104.102 22.1801 102.517 23.043 102.517 24.6038C102.548 25.2769 102.853 25.9081 103.365 26.3551C103.876 26.802 104.549 27.0261 105.231 26.976C106.071 27.0358 106.876 26.639 107.332 25.9411H107.385V26.8034H108.961V22.6545C108.961 20.7657 107.507 19.6704 105.643 19.6704L105.599 19.6443ZM105.397 25.5527C104.863 25.5527 104.119 25.2859 104.119 24.6382C104.119 23.776 105.046 23.4913 105.87 23.4913C106.39 23.4789 106.904 23.6041 107.359 23.8537C107.245 24.819 106.427 25.5554 105.441 25.5788L105.397 25.5527H105.397ZM114.705 19.9028L112.831 24.5784H112.779L110.835 19.9028H109.083L112 26.4417L110.336 30.0728H112.044L116.527 19.9035H114.705V19.9028ZM99.9866 26.8034H101.624V16.0214H99.9866V26.8034Z" fill="white"/>
<path d="M48.598 9.38487C48.6287 10.0339 48.3818 10.6679 47.916 11.1368C47.3944 11.6594 46.6678 11.9427 45.916 11.9172C44.7634 11.9083 43.7285 11.2345 43.2899 10.2072C42.852 9.17998 43.0946 8.00009 43.907 7.21212C44.4349 6.69231 45.1622 6.40697 45.9153 6.42347C46.3003 6.42209 46.681 6.49635 47.0339 6.64212C47.363 6.77001 47.6559 6.97147 47.8888 7.22931L47.4069 7.69343C47.0388 7.27194 46.4865 7.0416 45.916 7.07186C45.3421 7.06911 44.7919 7.29188 44.3924 7.68862C43.9928 8.08535 43.778 8.62166 43.7975 9.17447C43.7857 10.0099 44.2961 10.7697 45.0911 11.1018C45.8861 11.4332 46.8107 11.2709 47.4341 10.6906C47.7138 10.3984 47.8749 10.0188 47.8888 9.6214H45.9153V8.98952H48.561C48.5854 9.12016 48.598 9.25217 48.598 9.38419V9.38487ZM52.7611 7.19425H50.3065V8.85888H52.5428V9.49007H50.3065V11.1547H52.7611V11.8031H49.5791V6.54586H52.7611V7.19425ZM55.7429 11.8031H55.0427V7.19425H53.5156V6.54586H57.3063V7.19425H55.7429V11.8031ZM59.9792 11.8031V6.54586H60.6793V11.8031H59.9792ZM63.788 11.8031H63.0886V7.19425H61.5614V6.54586H65.3061V7.19425H63.788V11.8031ZM72.4063 11.1196C71.2997 12.1799 69.5124 12.1799 68.4064 11.1196C67.3339 10.0257 67.3339 8.31431 68.4064 7.22106C68.9357 6.70675 69.6547 6.41797 70.4064 6.41797C71.1581 6.41797 71.8778 6.70675 72.4063 7.22037C73.483 8.31294 73.483 10.0271 72.4063 11.1196ZM68.9246 10.6816C69.7439 11.4682 71.0689 11.4682 71.8882 10.6816C72.6929 9.8263 72.6929 8.52265 71.8882 7.6673C71.0689 6.88071 69.7439 6.88071 68.9246 7.6673C68.1198 8.52265 68.1198 9.8263 68.9246 10.6816ZM74.1971 11.8031V6.54586H75.052L77.7061 10.6376V6.54586H78.4062V11.8031H77.6789L74.9063 7.51878V11.8031H74.1971Z" fill="white" stroke="white" stroke-width="0.5"/>
<path d="M10.97 6.78953C10.6666 7.14845 10.5139 7.60775 10.5418 8.07324V28.3513C10.5139 28.8175 10.6673 29.2761 10.97 29.635L11.0348 29.699L22.5548 18.3491V18.0837L11.0348 6.72559L10.97 6.78884V6.78953Z" fill="url(#paint0_linear_1229_10615)"/>
<path d="M26.3105 22.1364L22.5547 18.3499V18.0845L26.3105 14.2891L26.3928 14.3344L30.8906 16.8922C32.1737 17.6169 32.1737 18.8085 30.8906 19.5422L26.4109 22.0903L26.3105 22.1364Z" fill="url(#paint1_linear_1229_10615)"/>
<path d="M26.4784 22.0819L22.5545 18.2129L10.9697 29.6363C11.5171 30.1108 12.3295 30.1335 12.9034 29.6913L26.4875 22.0812" fill="url(#paint2_linear_1229_10615)"/>
<path d="M26.4791 14.3442L12.8951 6.73408C12.3205 6.29128 11.5081 6.31465 10.9607 6.78908L22.5553 18.2125L26.4791 14.3442Z" fill="url(#paint3_linear_1229_10615)"/>
<path opacity="0.2" d="M26.3668 21.999L12.8944 29.5624C12.3435 29.9688 11.5862 29.9688 11.0346 29.5624L10.9697 29.6263L11.0346 29.691C11.5855 30.1001 12.3442 30.1001 12.8944 29.691L26.4784 22.0815L26.3668 21.999Z" fill="black"/>
<path opacity="0.12" d="M10.97 29.5068C10.6666 29.1486 10.5139 28.6892 10.5418 28.2231V28.3606C10.5139 28.8268 10.6673 29.2861 10.97 29.6443L11.0348 29.5804L10.97 29.5068ZM31.0155 19.4042L26.3671 21.9984L26.4508 22.0809L31.0155 19.5321C31.5427 19.288 31.8977 18.7847 31.9458 18.2119C31.8398 18.7297 31.496 19.1704 31.0155 19.4042Z" fill="black"/>
<path opacity="0.25" d="M12.8946 6.8633L31.0155 17.0202C31.4966 17.254 31.8397 17.694 31.9457 18.2118C31.8976 17.6397 31.5427 17.1364 31.0155 16.8916L12.8946 6.73472C11.5927 6.0107 10.5327 6.61577 10.5327 8.08237V8.21989C10.5606 6.74366 11.6017 6.13859 12.8946 6.8633Z" fill="white"/>
</g>
<defs>
<linearGradient id="paint0_linear_1229_10615" x1="17.8725" y1="7.86231" x2="8.13661" y2="17.7369" gradientUnits="userSpaceOnUse">
<stop stop-color="#00A0FF"/>
<stop offset="0.01" stop-color="#00A1FF"/>
<stop offset="0.26" stop-color="#00BEFF"/>
<stop offset="0.51" stop-color="#00D2FF"/>
<stop offset="0.76" stop-color="#00DFFF"/>
<stop offset="1" stop-color="#00E3FF"/>
</linearGradient>
<linearGradient id="paint1_linear_1229_10615" x1="32.5675" y1="18.2127" x2="10.4075" y2="18.2127" gradientUnits="userSpaceOnUse">
<stop stop-color="#FFE000"/>
<stop offset="0.41" stop-color="#FFBD00"/>
<stop offset="0.78" stop-color="#FFA500"/>
<stop offset="1" stop-color="#FF9C00"/>
</linearGradient>
<linearGradient id="paint2_linear_1229_10615" x1="24.349" y1="21.8589" x2="7.71585" y2="38.7201" gradientUnits="userSpaceOnUse">
<stop stop-color="#FF3A44"/>
<stop offset="1" stop-color="#C31162"/>
</linearGradient>
<linearGradient id="paint3_linear_1229_10615" x1="8.05036" y1="5.02134" x2="15.4747" y2="12.5509" gradientUnits="userSpaceOnUse">
<stop stop-color="#32A071"/>
<stop offset="0.07" stop-color="#2DA771"/>
<stop offset="0.48" stop-color="#15CF74"/>
<stop offset="0.8" stop-color="#06E775"/>
<stop offset="1" stop-color="#00F076"/>
</linearGradient>
<clipPath id="clip0_1229_10615">
<rect width="126.915" height="37.1293" fill="white" transform="translate(0.305176)"/>
</clipPath>
</defs>
</svg>
