<svg width="128" height="37" viewBox="0 0 128 37" fill="none" xmlns="http://www.w3.org/2000/svg">
<path d="M119.258 0.458695H9.06011L8.09779 0.470384C7.44439 0.47726 6.79378 0.528141 6.14944 0.622339C5.57763 0.708974 5.02116 0.872618 4.50164 1.10708C3.99189 1.34086 3.52328 1.64546 3.11674 2.00987C2.71229 2.3681 2.37757 2.78065 2.12234 3.23377C1.86293 3.69101 1.68302 4.18125 1.59028 4.68662C1.48498 5.25456 1.4278 5.82938 1.42013 6.41382C1.41385 6.57678 1.40688 7.07183 1.40479 7.21966V29.445C1.40688 29.5894 1.41455 30.0927 1.42013 30.2701C1.42849 30.8476 1.48568 31.4231 1.59097 31.9918C1.68442 32.4958 1.86293 32.984 2.12164 33.4391C2.37826 33.8929 2.71507 34.3041 3.11953 34.6596C3.52677 35.0268 3.99259 35.3293 4.50234 35.5603C5.02395 35.7955 5.58111 35.9605 6.15711 36.0485C6.79517 36.1413 7.44439 36.1922 8.0957 36.1998C8.41996 36.2066 8.73585 36.2101 9.05941 36.2101L118.107 36.2121L119.269 36.2101C119.585 36.2101 119.91 36.206 120.222 36.1998C120.877 36.1929 121.526 36.142 122.168 36.0485C122.745 35.9605 123.306 35.7955 123.831 35.5583C124.342 35.3258 124.808 35.0219 125.211 34.6568C125.616 34.2979 125.952 33.8888 126.21 33.4398C126.467 32.9846 126.644 32.4923 126.736 31.9849C126.841 31.419 126.9 30.8497 126.912 30.279C126.916 29.9902 126.916 29.7063 126.916 29.3852C126.925 29.0469 126.925 28.7106 126.925 28.3662V8.3026C126.925 7.96087 126.925 7.6219 126.916 7.25611C126.916 6.96732 126.916 6.67785 126.913 6.40763C126.901 5.83007 126.841 5.24975 126.734 4.67631C126.642 4.17437 126.465 3.68826 126.211 3.23445C125.688 2.32272 124.854 1.57876 123.831 1.10777C123.309 0.873993 122.746 0.708974 122.165 0.620277C121.529 0.527453 120.884 0.476572 120.238 0.469697L119.258 0.458008V0.458695Z" fill="black" stroke="white" stroke-width="1.333"/>
<path d="M49.2627 24.2886H44.8068L43.737 27.4404H41.8494L46.0703 15.7791H48.0312L52.2515 27.4404H50.3324L49.2627 24.2886ZM45.2684 22.8343H48.8004L47.0591 17.7187H47.0103L45.2684 22.8343ZM61.367 23.1898C61.367 25.8322 59.9493 27.5291 57.8106 27.5291C56.7047 27.5869 55.6628 27.0093 55.1287 26.0419H55.0882V30.2533H53.3379V18.9378H55.0325V20.3522H55.0638C55.6217 19.3902 56.6649 18.8127 57.7779 18.8491C59.941 18.8491 61.367 20.5543 61.367 23.1891V23.1898ZM59.5686 23.1898C59.5686 21.4688 58.6774 20.3363 57.3162 20.3363C55.9794 20.3363 55.0806 21.4922 55.0806 23.1898C55.0806 24.9033 55.9801 26.0501 57.3162 26.0501C58.6774 26.0501 59.5686 24.9266 59.5686 23.1898ZM70.7483 23.1898C70.7483 25.8322 69.3306 27.5291 67.1919 27.5291C66.0852 27.5869 65.0441 27.0093 64.5092 26.0419H64.4688V30.2533H62.7192V18.9378H64.413V20.3522H64.4451C65.0029 19.3902 66.0461 18.8127 67.1591 18.8491C69.3222 18.8491 70.7483 20.5543 70.7483 23.1891V23.1898ZM68.9498 23.1898C68.9498 21.4688 68.0579 20.3363 66.6974 20.3363C65.3607 20.3363 64.4618 21.4922 64.4618 23.1898C64.4618 24.9033 65.3614 26.0501 66.6974 26.0501C68.0579 26.0501 68.9498 24.9266 68.9498 23.1898ZM76.9482 24.1916C77.0779 25.3474 78.2041 26.1072 79.7432 26.1072C81.218 26.1072 82.2787 25.3474 82.2787 24.3051C82.2787 23.4002 81.6385 22.8577 80.1239 22.4864L78.6086 22.122C76.4622 21.6049 75.4657 20.6038 75.4657 18.9791C75.4657 16.9665 77.223 15.5845 79.7194 15.5845C82.1894 15.5845 83.8825 16.9665 83.9397 18.9791H82.1741C82.0681 17.815 81.1036 17.1123 79.6943 17.1123C78.285 17.1123 77.3206 17.8232 77.3206 18.8574C77.3206 19.6825 77.9364 20.1672 79.4433 20.5385L80.7313 20.8541C83.1301 21.42 84.1266 22.3805 84.1266 24.0864C84.1266 26.2681 82.3847 27.6343 79.6134 27.6343C77.0208 27.6343 75.2705 26.3004 75.1575 24.1909H76.9482V24.1916ZM87.9026 16.9266V18.9385H89.5233V20.3205H87.9026V25.0078C87.9026 25.7359 88.2269 26.0749 88.9396 26.0749C89.132 26.0714 89.3238 26.0584 89.5149 26.0343V27.4081C89.1941 27.4679 88.8692 27.4954 88.5435 27.4892C86.8176 27.4892 86.1447 26.8429 86.1447 25.1934V20.3205H84.9055V18.9385H86.1447V16.9266H87.902H87.9026ZM90.4619 23.1905C90.4619 20.5151 92.0413 18.834 94.5043 18.834C96.9757 18.834 98.5474 20.5151 98.5474 23.1898C98.5474 25.8721 96.984 27.5456 94.5043 27.5456C92.026 27.5456 90.4619 25.8721 90.4619 23.1898V23.1905ZM96.7651 23.1905C96.7651 21.3547 95.9213 20.2717 94.5043 20.2717C93.0866 20.2717 92.2449 21.3629 92.2449 23.1898C92.2449 25.0325 93.0866 26.1072 94.5043 26.1072C95.922 26.1072 96.7651 25.0325 96.7651 23.1898V23.1905ZM99.9902 18.9385H101.659V20.3859H101.699C101.932 19.4542 102.787 18.8127 103.75 18.8498C103.951 18.8491 104.152 18.8704 104.349 18.9144V20.5467C104.094 20.4691 103.828 20.434 103.563 20.4415C103.048 20.4209 102.55 20.6251 102.2 21.0012C101.849 21.3773 101.681 21.8875 101.74 22.397V27.4404H99.9895V18.9385H99.9902ZM112.415 24.9431C112.18 26.4867 110.673 27.5456 108.745 27.5456C106.266 27.5456 104.727 25.8886 104.727 23.2304C104.727 20.5632 106.274 18.834 108.671 18.834C111.03 18.834 112.512 20.4498 112.512 23.0282V23.6257H106.493V23.7309C106.436 24.3635 106.655 24.9906 107.094 25.4513C107.533 25.9119 108.149 26.1622 108.786 26.1388C109.634 26.2186 110.435 25.7325 110.754 24.9431H112.415ZM106.501 22.406H110.762C110.794 21.8373 110.586 21.2811 110.189 20.8713C109.792 20.4615 109.242 20.236 108.671 20.2483C108.096 20.2449 107.543 20.4704 107.135 20.8761C106.728 21.2811 106.499 21.8318 106.501 22.406ZM43.8786 6.6714C44.6199 6.62258 45.3472 6.8818 45.859 7.37892C46.3716 7.87604 46.6135 8.55743 46.5201 9.23607C46.5201 10.8856 45.5508 11.8331 43.8772 11.8331H41.8494V6.6714H43.8786ZM42.721 11.1035H43.781C44.311 11.1324 44.8284 10.9399 45.1875 10.5803C45.5466 10.22 45.7105 9.73044 45.6331 9.24638C45.7049 8.76508 45.539 8.27964 45.1798 7.9221C44.8221 7.56456 44.3082 7.3741 43.781 7.40092H42.721V11.1035ZM47.5054 9.88377C47.4329 9.18519 47.7969 8.50998 48.4454 8.14007C49.094 7.77015 49.9147 7.77015 50.5632 8.14007C51.2118 8.50998 51.5758 9.18519 51.5032 9.88377C51.5772 10.583 51.2132 11.2596 50.5646 11.6302C49.9154 12.0015 49.0933 12.0015 48.4447 11.6302C47.7955 11.2596 47.4315 10.583 47.5054 9.88377ZM50.6434 9.88377C50.6434 9.03942 50.2299 8.54574 49.5061 8.54574C48.7788 8.54574 48.3694 9.03942 48.3694 9.88377C48.3694 10.735 48.7788 11.2245 49.5061 11.2245C50.2299 11.2245 50.6427 10.7316 50.6427 9.88377H50.6434ZM56.8176 11.8331H55.9494L55.0736 8.96379H55.0073L54.1357 11.8331H53.2759L52.1071 7.93792H52.9558L53.7152 10.9103H53.7779L54.6489 7.93792H55.4509L56.3225 10.9103H56.3888L57.1447 7.93792H57.9815L56.8169 11.8331H56.8176ZM58.964 7.93792H59.7687V8.55674H59.8315C60.0491 8.10087 60.5567 7.8224 61.0965 7.86228C61.5142 7.83341 61.9235 7.98124 62.2087 8.26246C62.4946 8.54436 62.625 8.93078 62.5637 9.31101V11.8331H61.7269V9.50422C61.7269 8.87853 61.4312 8.56705 60.8126 8.56705C60.5288 8.55468 60.2541 8.65713 60.0595 8.8469C59.8643 9.03667 59.7701 9.2952 59.8001 9.55442V11.8331H58.9633V7.93792H58.964ZM63.897 6.41699H64.7338V11.8331H63.897V6.41699ZM65.8962 9.88377C65.8237 9.18519 66.1884 8.50998 66.8369 8.14007C67.4854 7.77015 68.3055 7.77015 68.954 8.14007C69.6025 8.50998 69.9672 9.18519 69.8947 9.88377C69.9686 10.583 69.6046 11.2596 68.9554 11.6302C68.3069 12.0015 67.484 12.0015 66.8355 11.6302C66.187 11.2596 65.8223 10.583 65.8962 9.88377ZM69.0342 9.88377C69.0342 9.03942 68.6207 8.54574 67.8969 8.54574C67.1695 8.54574 66.7602 9.03942 66.7602 9.88377C66.7602 10.735 67.1695 11.2245 67.8969 11.2245C68.6207 11.2245 69.0335 10.7316 69.0335 9.88377H69.0342ZM70.7754 10.7316C70.7754 10.0302 71.3431 9.62593 72.3514 9.56886L73.4999 9.50766V9.17144C73.4999 8.76026 73.2036 8.52786 72.6317 8.52786C72.1645 8.52786 71.8417 8.686 71.7489 8.96104H70.9386C71.0244 8.29133 71.7092 7.86228 72.6708 7.86228C73.7335 7.86228 74.3325 8.3484 74.3325 9.17144V11.8331H73.5271V11.2857H73.4609C73.1875 11.6852 72.7008 11.919 72.1882 11.8977C71.8284 11.9321 71.4693 11.8248 71.2001 11.602C70.931 11.3806 70.7768 11.0637 70.7747 10.7316H70.7754ZM73.4999 10.3988V10.0729L72.4644 10.134C71.8807 10.1698 71.6164 10.352 71.6164 10.6958C71.6164 11.0465 71.947 11.25 72.4023 11.25C72.6715 11.2754 72.9407 11.1991 73.1471 11.0382C73.3542 10.878 73.4818 10.6463 73.4999 10.3988ZM75.4315 9.88308C75.4315 8.65231 76.1205 7.87329 77.1916 7.87329C77.732 7.84991 78.2383 8.11669 78.4914 8.55674H78.5542V6.41699H79.3903V11.8331H78.5884V11.2177H78.5221C78.2502 11.6543 77.7383 11.9156 77.1916 11.897C76.1128 11.897 75.4322 11.1173 75.4322 9.88377L75.4315 9.88308ZM76.2962 9.88308C76.2962 10.7102 76.7195 11.2074 77.4287 11.2074C78.133 11.2074 78.5695 10.7027 78.5695 9.88721C78.5695 9.07586 78.1288 8.56362 77.4287 8.56362C76.7244 8.56362 76.2962 9.06417 76.2962 9.88377V9.88308ZM82.8512 9.88308C82.7786 9.18519 83.1427 8.50998 83.7912 8.14007C84.4397 7.77015 85.2605 7.77015 85.9083 8.14007C86.5568 8.50998 86.9215 9.18519 86.849 9.88377C86.9229 10.583 86.5589 11.2596 85.9097 11.6302C85.2612 12.0015 84.439 12.0015 83.7898 11.6302C83.1413 11.2596 82.7772 10.583 82.8512 9.88377V9.88308ZM85.9885 9.88308C85.9885 9.03942 85.5756 8.54574 84.8518 8.54574C84.1238 8.54574 83.7152 9.03942 83.7152 9.88377C83.7152 10.735 84.1245 11.2245 84.8518 11.2245C85.5756 11.2245 85.9885 10.7316 85.9885 9.88377V9.88308ZM87.971 7.93723H88.7764V8.55605H88.8392C89.056 8.10087 89.5644 7.8224 90.1034 7.86228C90.5218 7.83341 90.9312 7.98124 91.2164 8.26246C91.5023 8.54436 91.632 8.93078 91.5706 9.31101V11.8331H90.7338V9.50422C90.7338 8.87853 90.4382 8.56705 89.8196 8.56705C89.5365 8.55468 89.2617 8.65713 89.0665 8.8469C88.8719 9.03667 88.7778 9.2952 88.8078 9.55442V11.8331H87.971V7.93792V7.93723ZM96.2971 6.96843V7.95579H97.2155V8.60349H96.2971V10.6064C96.2971 11.0148 96.4805 11.1936 96.8969 11.1936C97.0035 11.1936 97.1095 11.1867 97.2155 11.1757V11.8159C97.0656 11.8406 96.9136 11.8537 96.7609 11.8551C95.8306 11.8551 95.4603 11.5546 95.4603 10.8031V8.60349H94.7874V7.95579H95.4603V6.96774H96.2971V6.96843ZM98.3585 6.41699H99.1876V8.56362H99.2538C99.4812 8.10431 99.9986 7.82515 100.546 7.86572C100.962 7.84509 101.365 7.99567 101.648 8.27621C101.93 8.55743 102.061 8.93903 102.006 9.31789V11.8331H101.169V9.50766C101.169 8.8854 100.853 8.57049 100.262 8.57049C99.9714 8.54849 99.6841 8.64612 99.4784 8.8359C99.2727 9.02636 99.1688 9.29039 99.1946 9.55785V11.8337H98.3578V6.41699H98.3585ZM106.883 10.7811C106.648 11.5168 105.874 11.9912 105.046 11.9087C104.481 11.9224 103.937 11.7065 103.561 11.3194C103.184 10.9323 103.01 10.4118 103.088 9.89752C103.012 9.38183 103.185 8.86065 103.56 8.4701C103.935 8.07956 104.475 7.85816 105.042 7.86228C106.222 7.86228 106.933 8.60281 106.933 9.82601V10.0942H103.94V10.1375C103.913 10.4263 104.021 10.7123 104.236 10.9248C104.451 11.1379 104.753 11.2569 105.069 11.2534C105.478 11.2988 105.876 11.1125 106.077 10.7811H106.883ZM103.94 9.52623H106.081C106.102 9.26151 106.001 9.00092 105.802 8.80908C105.604 8.61656 105.326 8.51067 105.038 8.51686C104.745 8.51342 104.464 8.61862 104.257 8.80839C104.051 8.99885 103.936 9.25738 103.94 9.52623Z" fill="white"/>
<path d="M29.7936 18.9765C29.8145 17.4054 30.6548 15.9539 32.0202 15.1309C31.1548 13.9194 29.7574 13.1782 28.2497 13.1328C26.6633 12.9691 25.1257 14.0631 24.3168 14.0631C23.4939 14.0631 22.2485 13.1486 20.9082 13.1761C19.1453 13.2311 17.5408 14.191 16.6831 15.7023C14.856 18.8033 16.2186 23.3619 17.9689 25.8681C18.8448 27.0962 19.8678 28.4672 21.2067 28.4191C22.5177 28.3654 23.0065 27.5995 24.5887 27.5995C26.1549 27.5995 26.6145 28.4184 27.9806 28.3874C29.3864 28.3654 30.272 27.1546 31.1172 25.9156C31.7462 25.041 32.2301 24.0742 32.5516 23.0511C30.8815 22.3587 29.7957 20.7546 29.7936 18.9765ZM27.2135 11.484C27.9806 10.5812 28.3571 9.42124 28.2665 8.25098C27.0949 8.3713 26.0134 8.91999 25.2366 9.78772C24.4695 10.6438 24.0804 11.7638 24.1557 12.9011C25.3425 12.9135 26.4694 12.3909 27.2135 11.484Z" fill="white"/>
</svg>
